# xmcd
#
# Track frame offsets: 
#        150
#        17297
#        32689
#        48927
#        77785
#        100985
#        121183
#        133261
#        151725
#        167350
#        219036
#        234647
#        259662
#        285271
#
# Disc length: 4046 seconds
#
# Revision: 1
# Processed by: cddbd v1.5.2PL0 Copyright (c) Steve Scherf et al.
# Submitted via: ExactAudioCopy v0.99pb4
#
DISCID=a20fcc0e
DTITLE=Deadwood Revival - SAT 730
DYEAR=2009
DGENRE=Bluegrass
TTITLE0=Ain't The Buyin' Kind
TTITLE1=Red Rocking Chair
TTITLE2=Sugar Hill
TTITLE3=Big River
TTITLE4=That's Alright
TTITLE5=Glendale Train
TTITLE6=Come See Me Sometime
TTITLE7=When I'm Gone
TTITLE8=China Cat Sunflower
TTITLE9=Mattie's Jam - Shake The Barnhouse Down
TTITLE10=Cover My Tracks
TTITLE11=Find My Way
TTITLE12=Daisy
TTITLE13=Cotton Eyed Joe
EXTD=
EXTT0=
EXTT1=
EXTT2=
EXTT3=
EXTT4=
EXTT5=
EXTT6=
EXTT7=
EXTT8=
EXTT9=
EXTT10=
EXTT11=
EXTT12=
EXTT13=
PLAYORDER=
